<?xml version="1.0"?><svg width="588.6686626746507" height="677.626746506986" xmlns="http://www.w3.org/2000/svg" version="1.0">
 <title>Green Check Mark</title>
 <metadata id="metadata7">image/svg+xml</metadata>

 <g display="inline">
  <title>Layer 1</title>
  <g id="layer1">
   <path d="m164.985992,341.868958c0.014008,11.278015 2.894012,22.235077 5.292023,33.171021c8.164001,34.884033 20.679993,68.41803 34.080994,101.565033c12.730988,30.255981 25.519989,60.579987 46.502991,85.835968c31.231018,-44.401978 -199.256996,147.059998 -144.558998,68.278992c11.929993,-20.731995 25.099983,-40.682983 37.880989,-60.888977c38.505005,-62.078003 78.465027,-123.231995 117.943024,-184.692993c61.128998,-93.890991 121.786987,-188.238998 170.947998,-289.052994c4.562988,-10.657013 9.127014,-21.313995 13.690979,-31.971008l141.903015,-64.113998c-6.822998,11.826996 -13.64502,23.653992 -20.468018,35.481003c-57.619995,97.401001 -117.909973,193.20401 -174.38797,291.279984c-31.315002,56.624023 -62.007019,113.612976 -90.059998,171.940979c-9.873016,19.447998 -20.595001,38.359009 -31.06601,57.472046c-27.235992,62.987 -141.393005,169.078979 -179.227013,97.631958c-10.714005,-32.024963 -21.542007,-64.09198 -36.061005,-94.64801c-14.738998,-32.380005 -30.370995,-64.336975 -45.415993,-96.574951c-5.007004,-10.728973 -8.524002,-21.880005 -11.983002,-33.189026l164.985992,-87.525024z" fill="#007f00" opacity="0.859873" id="path3161"/>
  </g>
 </g>
</svg>